<?xml version="1.0" encoding="iso-8859-1"?>
<!-- Generator: Adobe Illustrator 23.0.2, SVG Export Plug-In . SVG Version: 6.00 Build 0)  -->
<svg version="1.1" id="Layer_1" xmlns="http://www.w3.org/2000/svg" xmlns:xlink="http://www.w3.org/1999/xlink" x="0px" y="0px"
	 viewBox="0 0 500 500" style="enable-background:new 0 0 500 500;" xml:space="preserve">
<g>
	<path style="fill:#FFFFFF;" d="M397.5,334.487c-97.632,0-195.263,0-292.947,0c0-55.937,0-111.886,0-167.912
		c97.614,0,195.281,0,292.947,0C397.5,222.504,397.5,278.489,397.5,334.487z M148.199,288.807c0.291,0.048,0.581,0.096,0.872,0.143
		c0.88-0.936,1.746-1.884,2.641-2.805c3.912-4.026,5.956-4.275,11.03-1.803c7.579,3.692,15.614,5.762,24.056,5.821
		c13.086,0.092,24.921-4.283,36.249-10.444c14.596-7.939,27.527-18.297,40.954-27.939c12.357-8.874,24.707-17.789,39.299-22.809
		c8.861-3.049,17.889-4.557,27.225-2.495c2.686,0.593,5.353,1.274,8.029,1.914c-0.669-1.025-1.55-1.558-2.47-2.012
		c-13.12-6.473-26.639-6.258-40.376-2.398c-13.166,3.7-25.101,10.1-36.821,16.924c-11.203,6.522-22.233,13.345-33.472,19.802
		c-8.735,5.018-17.812,9.291-27.852,11.182c-12.721,2.395-23.887-3.298-30.459-13.832c-2.226-3.568-2.055-7.141,0.236-10.794
		c3.114-4.966,8.091-7.237,13.041-9.604c0.48-0.23,1.166-0.031,1.756-0.031c0.104,0.223,0.207,0.446,0.311,0.67
		c-1.302,1.22-2.605,2.44-4.173,3.909c3.89,1.828,8.573,1.811,10.803,5.66c2.003,3.458,3.472,7.226,5.27,11.058
		c1.508-2.606,3.937-3.832,7.257-3.256c0.07-0.268,0.14-0.536,0.21-0.804c-2.371-3.052-4.741-6.105-7.112-9.157
		c0.15-0.137,0.3-0.275,0.45-0.412c0.496,0.377,1.001,0.743,1.486,1.134c2.36,1.904,4.548,4.105,7.146,5.59
		c1.172,0.67,2.921,0.16,2.063,2.3c1.455,0.143,2.838-0.008,3.949,0.47c1.104,0.476,1.936,1.586,3.067,2.575
		c0.624-1.261,1.381-2.12,1.438-3.023c0.207-3.304,0.385-6.641,0.09-9.922c-0.068-0.756-2.194-1.188-3.146-2.027
		c-6.599-5.813-11.034-13.232-15.19-20.834c-0.496-0.907-0.644-2.003-0.953-3.012c-0.155,0.037-0.311,0.075-0.466,0.112
		c-0.198,1.507-0.397,3.015-0.595,4.522c-0.266,0.061-0.532,0.121-0.797,0.182c-0.755-1.835-1.509-3.67-2.497-6.071
		c-0.344,1.903-0.566,3.131-0.917,5.071c-2.142-2.62-3.739-4.698-5.471-6.655c-1.784-2.016-3.748-3.833-6.915-4.352
		c1.161,2.872,2.155,5.33,3.148,7.787c-0.158,0.194-0.315,0.389-0.473,0.583c-7.419-2.494-14.858-3.381-23.067-1.004
		c5.966,2.605,7.603,3.89,8.381,6.599c-6.809-0.813-13.371-0.649-19.536,4.125c2.468,0.643,4.344,1.131,6.22,1.62
		c0.026,0.26,0.053,0.52,0.079,0.78c-5.731,2.416-10.719,5.69-13.744,11.281c-2.947,5.447-4.012,11.14-2.758,17.881
		c2.653-3.476,4.646-6.605,8.369-8.035c-7.373,11.213-7.651,22.927-3.32,35.057c0.854-3.199,1.189-6.48,1.941-9.662
		c0.754-3.191,1.333-6.556,3.85-9.176C147.106,275.924,147.652,282.366,148.199,288.807z M358.916,239.752
		c-0.116,0.252-0.233,0.505-0.349,0.757c-4.131-0.773-8.545,1.194-12.621-1.965c0,0.804,0,1.304,0,2.591
		c-2.746-3.239-5.047-5.953-7.348-8.667c-0.658,5.688-0.278,10.961,4.072,15.003c2.507,2.33,5.572,2.769,8.956,2.336
		c-0.126-0.583-0.105-0.878-0.24-1.048c-1.176-1.47-1.949-3.094-0.592-4.738c1.379-1.672,3.406-1.927,5.24-0.994
		c2.187,1.112,4.199,2.577,6.243,3.954c1.585,1.067,3.103,2.234,4.951,3.575c-1.141-3.185-2.153-5.793-3.01-8.452
		c-1.197-3.711-2.937-6.877-7.04-8.018c-0.141-0.039-0.191-0.405-0.558-1.255c2.281,0.253,4.182,0.464,6.136,0.681
		c-1.445-6.476-11.837-10.747-17.515-7.203c2.918,1.038,5.722,2.036,8.632,3.071c-1.503,1.019-3.18,1.62-3.213,2.302
		c-0.055,1.108,0.752,2.473,1.59,3.354c1,1.052,2.425,1.694,3.648,2.54C356.917,238.28,357.911,239.025,358.916,239.752z"/>
	<path d="M148.199,288.807c-0.547-6.442-1.093-12.883-1.664-19.614c-2.517,2.62-3.096,5.985-3.85,9.176
		c-0.752,3.182-1.087,6.463-1.941,9.662c-4.331-12.13-4.053-23.844,3.32-35.057c-3.723,1.43-5.716,4.559-8.369,8.035
		c-1.254-6.741-0.189-12.434,2.758-17.881c3.025-5.591,8.013-8.865,13.744-11.281c-0.026-0.26-0.053-0.52-0.079-0.78
		c-1.876-0.489-3.752-0.977-6.22-1.62c6.165-4.774,12.727-4.938,19.536-4.125c-0.777-2.709-2.415-3.994-8.381-6.599
		c8.209-2.377,15.648-1.49,23.067,1.004c0.158-0.194,0.315-0.389,0.473-0.583c-0.993-2.457-1.987-4.914-3.148-7.787
		c3.168,0.519,5.132,2.336,6.915,4.352c1.732,1.957,3.328,4.035,5.471,6.655c0.351-1.94,0.573-3.168,0.917-5.071
		c0.987,2.401,1.742,4.236,2.497,6.071c0.266-0.061,0.532-0.121,0.797-0.182c0.198-1.507,0.397-3.015,0.595-4.522
		c0.155-0.037,0.311-0.075,0.466-0.112c0.309,1.009,0.457,2.105,0.953,3.012c4.156,7.602,8.591,15.021,15.19,20.834
		c0.952,0.839,3.077,1.27,3.146,2.027c0.296,3.281,0.117,6.618-0.09,9.922c-0.057,0.903-0.813,1.762-1.438,3.023
		c-1.132-0.99-1.963-2.1-3.067-2.575c-1.111-0.479-2.494-0.327-3.949-0.47c0.857-2.14-0.892-1.63-2.063-2.3
		c-2.598-1.486-4.786-3.687-7.146-5.59c-0.485-0.391-0.99-0.756-1.486-1.134c-0.15,0.137-0.3,0.275-0.45,0.412
		c2.371,3.052,4.741,6.105,7.112,9.157c-0.07,0.268-0.14,0.536-0.21,0.804c-3.32-0.576-5.749,0.65-7.257,3.256
		c-1.798-3.832-3.267-7.6-5.27-11.058c-2.23-3.849-6.913-3.833-10.803-5.66c1.568-1.469,2.87-2.689,4.173-3.909
		c-0.104-0.223-0.207-0.446-0.311-0.67c-0.59,0-1.275-0.199-1.756,0.031c-4.95,2.367-9.927,4.638-13.041,9.604
		c-2.291,3.653-2.461,7.226-0.236,10.794c6.571,10.534,17.738,16.227,30.459,13.832c10.039-1.89,19.117-6.164,27.852-11.182
		c11.24-6.457,22.269-13.28,33.472-19.802c11.72-6.824,23.655-13.224,36.821-16.924c13.736-3.861,27.256-4.075,40.376,2.398
		c0.92,0.454,1.801,0.986,2.47,2.012c-2.676-0.64-5.343-1.321-8.029-1.914c-9.336-2.062-18.363-0.554-27.225,2.495
		c-14.592,5.02-26.941,13.935-39.299,22.809c-13.428,9.642-26.358,20-40.954,27.939c-11.328,6.161-23.163,10.536-36.249,10.444
		c-8.442-0.059-16.477-2.13-24.056-5.821c-5.074-2.471-7.117-2.223-11.03,1.803c-0.895,0.921-1.761,1.869-2.641,2.805
		C148.78,288.903,148.489,288.855,148.199,288.807z M197.377,230.504c-0.254-0.008-0.508-0.016-0.762-0.024
		c0.176,1.086-0.01,2.479,0.6,3.196c1.455,1.713,3.367,2.908,6.489,2.863C201.254,234.202,199.315,232.353,197.377,230.504z"/>
	<path d="M358.916,239.752c-1.006-0.727-2-1.472-3.02-2.178c-1.223-0.846-2.648-1.489-3.648-2.54
		c-0.838-0.881-1.644-2.246-1.59-3.354c0.034-0.682,1.711-1.282,3.213-2.302c-2.91-1.035-5.714-2.033-8.632-3.071
		c5.678-3.543,16.07,0.727,17.515,7.203c-1.954-0.217-3.856-0.428-6.136-0.681c0.367,0.85,0.417,1.216,0.558,1.255
		c4.103,1.142,5.843,4.307,7.04,8.018c0.857,2.659,1.869,5.267,3.01,8.452c-1.848-1.34-3.366-2.507-4.951-3.575
		c-2.044-1.377-4.057-2.843-6.243-3.954c-1.834-0.932-3.86-0.678-5.24,0.994c-1.357,1.645-0.584,3.269,0.592,4.738
		c0.136,0.17,0.114,0.465,0.24,1.048c-3.384,0.433-6.449-0.006-8.956-2.336c-4.349-4.042-4.73-9.315-4.072-15.003
		c2.301,2.714,4.602,5.428,7.348,8.667c0-1.287,0-1.787,0-2.591c4.076,3.159,8.49,1.192,12.621,1.965
		C358.684,240.257,358.8,240.004,358.916,239.752z"/>
	<path style="fill:#FFFFFF;" d="M197.377,230.504c1.938,1.849,3.877,3.698,6.327,6.035c-3.122,0.045-5.034-1.15-6.489-2.863
		c-0.609-0.718-0.424-2.11-0.6-3.196C196.869,230.488,197.123,230.496,197.377,230.504z"/>
</g>
</svg>
