<?xml version="1.0" encoding="iso-8859-1"?>
<!-- Generator: Adobe Illustrator 23.0.2, SVG Export Plug-In . SVG Version: 6.00 Build 0)  -->
<svg version="1.1" id="Layer_1" xmlns="http://www.w3.org/2000/svg" xmlns:xlink="http://www.w3.org/1999/xlink" x="0px" y="0px"
	 viewBox="0 0 500 500" style="enable-background:new 0 0 500 500;" xml:space="preserve">
<g>
	<path style="fill:#FFFFFF;" d="M338.5,350.5c-58.667,0-117.333,0-176,0c0-67,0-134,0-201c58.667,0,117.333,0,176,0
		C338.5,216.5,338.5,283.5,338.5,350.5z M231.016,188.395c-0.712-1.311-1.146-2.085-1.557-2.871c-1.578-3.018-3.032-6.11-4.787-9.02
		c-0.586-0.971-1.935-1.482-2.935-2.203c-0.713,1.013-1.886,1.95-2.066,3.05c-1.656,10.131-2.676,20.362-1.734,30.597
		c0.837,9.093,2.459,18.113,3.658,27.176c0.096,0.728-0.34,1.563-0.646,2.299c-0.437,1.049-1.235,2.008-1.428,3.086
		c-0.363,2.022-0.099,4.186-0.635,6.143c-1.452,5.297-5.705,8.385-9.667,11.719c-5.782,4.866-11.664,9.649-17.065,14.918
		c-4.145,4.044-6.897,9.152-7.797,15.042c-1.502,9.838,1.317,18.483,7.577,26.005c8.392,10.083,19.508,15.568,32.14,18.162
		c5.43,1.115,5.499,0.91,4.206,6.037c-0.371,1.473-0.343,2.76,1.334,3.203c1.593,0.421,2.414-0.581,2.938-1.997
		c0.724-1.957,1.557-3.875,2.343-5.809c0.277,0.031,0.555,0.061,0.832,0.092c0.196,0.712,0.508,1.414,0.564,2.137
		c0.103,1.326-0.206,2.741,0.159,3.97c0.267,0.899,1.337,1.559,2.049,2.326c0.711-0.764,1.801-1.425,2.044-2.317
		c0.36-1.322,0.04-2.815,0.169-4.22c0.06-0.658,0.494-1.282,0.758-1.921c0.253,0.012,0.505,0.024,0.758,0.036
		c0.768,1.977,1.529,3.957,2.306,5.931c0.555,1.409,1.632,2.464,3.024,1.624c0.73-0.441,1.014-1.979,1.08-3.047
		c0.052-0.838-0.511-1.727-0.85-2.573c-0.604-1.503-0.557-2.452,1.447-2.751c2.705-0.404,5.4-0.997,8.034-1.74
		c10.788-3.045,20.309-8.217,27.637-16.923c10.887-12.935,10.939-29.582-0.838-42.296c-1.244-1.343-2.489-2.711-3.894-3.873
		c-5.255-4.346-10.629-8.55-15.857-12.926c-4.633-3.878-7.513-8.626-6.824-15c0.089-0.821-0.138-2.185-0.666-2.47
		c-1.82-0.984-1.441-2.416-1.219-3.883c0.686-4.523,1.465-9.032,2.077-13.565c1.711-12.669,2.176-25.379,1.03-38.129
		c-0.122-1.361-0.204-3.056-1.914-2.942c-1.023,0.068-2.361,1.139-2.869,2.116c-1.333,2.568-2.271,5.339-3.409,8.012
		c-0.238,0.558-0.658,1.039-1.369,2.13c-0.231-1.438-0.376-2.074-0.43-2.718c-0.91-10.733-3.095-21.219-6.276-31.492
		c-0.302-0.976-1.486-2.127-2.427-2.302c-0.647-0.12-2.035,1.167-2.311,2.066c-1.241,4.044-2.366,8.141-3.227,12.282
		C233.234,175.563,232.249,181.616,231.016,188.395z"/>
	<path d="M231.016,188.395c1.233-6.779,2.218-12.832,3.465-18.831c0.861-4.141,1.986-8.237,3.227-12.282
		c0.276-0.898,1.664-2.186,2.311-2.066c0.941,0.175,2.124,1.326,2.427,2.302c3.181,10.273,5.367,20.759,6.276,31.492
		c0.055,0.644,0.199,1.28,0.43,2.718c0.711-1.091,1.131-1.571,1.369-2.13c1.138-2.672,2.076-5.444,3.409-8.012
		c0.508-0.978,1.845-2.048,2.869-2.116c1.71-0.114,1.792,1.581,1.914,2.942c1.147,12.75,0.681,25.459-1.03,38.129
		c-0.612,4.532-1.391,9.042-2.077,13.565c-0.222,1.467-0.601,2.899,1.219,3.883c0.528,0.285,0.755,1.649,0.666,2.47
		c-0.689,6.374,2.191,11.122,6.824,15c5.229,4.377,10.603,8.58,15.857,12.926c1.405,1.162,2.65,2.53,3.894,3.873
		c11.777,12.714,11.725,29.361,0.838,42.296c-7.327,8.706-16.848,13.877-27.637,16.923c-2.634,0.744-5.329,1.336-8.034,1.74
		c-2.004,0.299-2.051,1.247-1.447,2.751c0.34,0.846,0.903,1.736,0.85,2.573c-0.067,1.069-0.35,2.607-1.08,3.047
		c-1.392,0.84-2.469-0.215-3.024-1.624c-0.777-1.974-1.538-3.954-2.306-5.931c-0.253-0.012-0.505-0.024-0.758-0.036
		c-0.264,0.639-0.698,1.263-0.758,1.921c-0.129,1.405,0.191,2.898-0.169,4.22c-0.243,0.892-1.333,1.552-2.044,2.317
		c-0.712-0.767-1.782-1.427-2.049-2.326c-0.365-1.229-0.055-2.644-0.159-3.97c-0.056-0.723-0.368-1.425-0.564-2.137
		c-0.277-0.031-0.555-0.061-0.832-0.092c-0.786,1.935-1.618,3.852-2.343,5.809c-0.524,1.416-1.345,2.418-2.938,1.997
		c-1.677-0.443-1.706-1.73-1.334-3.203c1.293-5.127,1.225-4.922-4.206-6.037c-12.631-2.594-23.748-8.079-32.14-18.162
		c-6.26-7.521-9.079-16.167-7.577-26.005c0.899-5.89,3.652-10.999,7.797-15.042c5.401-5.269,11.283-10.052,17.065-14.918
		c3.962-3.334,8.215-6.422,9.667-11.719c0.536-1.957,0.272-4.121,0.635-6.143c0.193-1.078,0.991-2.037,1.428-3.086
		c0.307-0.736,0.743-1.571,0.646-2.299c-1.199-9.063-2.821-18.083-3.658-27.176c-0.942-10.235,0.078-20.466,1.734-30.597
		c0.18-1.1,1.353-2.037,2.066-3.05c1,0.721,2.35,1.232,2.935,2.203c1.755,2.911,3.209,6.003,4.787,9.02
		C229.871,186.31,230.304,187.084,231.016,188.395z M223.909,248.02c-0.471,0.419-0.829,0.585-0.93,0.849
		c-2.532,6.672-8.089,10.526-13.352,14.773c-5.1,4.115-10.211,8.342-14.621,13.157c-7.827,8.545-8.766,18.472-3.515,28.678
		c6.359,12.359,17.486,18.533,30.368,21.966c9.119,2.43,18.379,2.768,27.731,1.168c10.74-1.838,20.458-5.787,28.522-13.266
		c8.043-7.46,11.654-16.657,10.219-27.619c-0.22-1.678-0.934-3.404-1.824-4.861c-4.957-8.111-12.149-14.026-19.641-19.626
		c-4.611-3.447-9.182-6.953-11.884-12.242c-0.73-1.429-1.264-2.959-2.049-4.827c-1.731,2.121-3.17,3.932-4.66,5.699
		c-1.993,2.363-3.313,2.262-5.004-0.361c-1.376-2.134-2.72-4.288-4.316-6.809c-0.64,1.129-1.088,1.8-1.418,2.524
		c-1.241,2.722-2.335,5.518-3.712,8.167c-0.554,1.066-1.704,2.542-2.571,2.534c-0.948-0.009-2.087-1.379-2.78-2.402
		C226.86,253.142,225.467,250.615,223.909,248.02z M231.126,250.411c0.568-1.201,1.037-2.164,1.481-3.139
		c1.345-2.948,2.215-6.265,4.159-8.74c1.696-2.16,1.84-4.13,1.518-6.438c-1.821-13.051-4.822-25.799-9.954-37.98
		c-1.353-3.212-2.857-6.361-4.457-9.903C219.532,193.588,225.162,244.217,231.126,250.411z M240.555,166.876
		c-0.467-0.001-0.934-0.002-1.401-0.003c-1.235,8.691-2.532,17.374-3.676,26.078c-0.479,3.642-0.347,7.258,1.038,10.8
		c0.993,2.541,1.587,5.24,2.319,7.88c0.684,2.468,1.316,4.95,1.971,7.427c1.133-2.384,1.706-4.715,2.439-6.995
		c1.754-5.458,2.44-10.961,1.562-16.696c-0.679-4.435-0.768-8.96-1.433-13.397C242.615,176.91,241.509,171.904,240.555,166.876z
		 M254.32,193.08c-0.411,0.432-0.634,0.565-0.705,0.755c-5.215,13.987-8.652,28.417-11.014,43.144
		c-0.655,4.083,0.841,7.023,3.863,10.443c1.137-2.052,2.338-3.692,2.985-5.527c0.71-2.016,0.893-4.215,1.336-6.327
		c2.793-13.329,4.104-26.8,3.856-40.418C254.63,194.553,254.461,193.958,254.32,193.08z"/>
	<path style="fill:#FFFFFF;" d="M223.909,248.02c1.558,2.595,2.951,5.122,4.562,7.501c0.693,1.023,1.832,2.393,2.78,2.402
		c0.867,0.008,2.017-1.467,2.571-2.534c1.377-2.649,2.471-5.445,3.712-8.167c0.33-0.724,0.778-1.394,1.418-2.524
		c1.596,2.521,2.94,4.675,4.316,6.809c1.691,2.622,3.011,2.723,5.004,0.361c1.491-1.767,2.93-3.578,4.66-5.699
		c0.785,1.868,1.318,3.398,2.049,4.827c2.703,5.289,7.273,8.795,11.884,12.242c7.492,5.6,14.684,11.515,19.641,19.626
		c0.89,1.457,1.605,3.184,1.824,4.861c1.435,10.962-2.176,20.159-10.219,27.619c-8.064,7.479-17.782,11.428-28.522,13.266
		c-9.352,1.6-18.612,1.263-27.731-1.168c-12.881-3.433-24.009-9.607-30.368-21.966c-5.251-10.205-4.311-20.133,3.515-28.678
		c4.41-4.815,9.521-9.043,14.621-13.157c5.263-4.246,10.82-8.101,13.352-14.773C223.079,248.605,223.438,248.439,223.909,248.02z
		 M280.384,295.62c-0.031-7.372-2.999-12.994-7.552-17.448c-5.804-5.678-12.235-10.72-18.486-15.927
		c-0.539-0.449-2.164-0.452-2.554-0.013c-0.541,0.61-0.791,2.027-0.442,2.749c0.551,1.143,1.605,2.114,2.616,2.953
		c4.221,3.502,8.66,6.757,12.722,10.432c3.64,3.294,7.926,6.325,8.48,11.839c0.272,2.709,0.096,5.463,0.378,8.169
		c0.089,0.859,1.007,2.298,1.538,2.295c0.876-0.005,2.128-0.776,2.529-1.573C280.222,297.885,280.238,296.377,280.384,295.62z
		 M224.409,279.219c-1.788-2.866-2.635-3.494-3.731-2.533c-6.026,5.283-11.821,10.798-13.782,19.007
		c-1.247,5.22,2.514,13.711,7.183,16.165c0.767,0.403,2.038-0.155,3.076-0.268c-0.141-1.035,0.007-2.25-0.496-3.061
		c-0.63-1.014-1.821-1.668-2.724-2.526c-4.203-3.99-4.765-10.062-1.333-14.679c2.763-3.719,5.333-7.615,9.531-9.996
		C223.024,280.823,223.683,279.908,224.409,279.219z M195.682,292.79c0.449,0.451,1.33,1.335,2.21,2.22
		c0.815-0.874,2.27-1.702,2.336-2.63c0.294-4.14,2.042-7.606,4.821-10.393c3.854-3.865,8.062-7.38,12.156-11.002
		c1.183-1.047,1.981-2.172,0.89-3.617c-1.055-1.398-2.391-0.96-3.478,0.009c-4.509,4.022-9.148,7.922-13.397,12.206
		C197.939,282.892,196.248,287.182,195.682,292.79z"/>
	<path style="fill:#FFFFFF;" d="M231.126,250.411c-5.964-6.194-11.594-56.823-7.253-66.2c1.599,3.542,3.103,6.691,4.457,9.903
		c5.132,12.181,8.133,24.93,9.954,37.98c0.322,2.308,0.179,4.278-1.518,6.438c-1.944,2.475-2.814,5.792-4.159,8.74
		C232.163,248.247,231.694,249.21,231.126,250.411z"/>
	<path style="fill:#FFFFFF;" d="M240.555,166.876c0.955,5.029,2.061,10.034,2.819,15.093c0.665,4.438,0.755,8.962,1.433,13.397
		c0.878,5.735,0.192,11.239-1.562,16.696c-0.733,2.28-1.306,4.611-2.439,6.995c-0.655-2.476-1.287-4.959-1.971-7.427
		c-0.732-2.64-1.325-5.339-2.319-7.88c-1.385-3.543-1.516-7.159-1.038-10.8c1.144-8.703,2.441-17.386,3.676-26.078
		C239.62,166.874,240.087,166.875,240.555,166.876z"/>
	<path style="fill:#FFFFFF;" d="M254.32,193.08c0.141,0.879,0.31,1.473,0.321,2.07c0.249,13.618-1.063,27.089-3.856,40.418
		c-0.443,2.113-0.626,4.312-1.336,6.327c-0.647,1.835-1.847,3.475-2.985,5.527c-3.021-3.42-4.517-6.36-3.863-10.443
		c2.361-14.727,5.799-29.157,11.014-43.144C253.686,193.645,253.91,193.512,254.32,193.08z"/>
	<path d="M280.384,295.62c-0.147,0.757-0.163,2.266-0.772,3.476c-0.401,0.797-1.653,1.568-2.529,1.573
		c-0.531,0.003-1.449-1.436-1.538-2.295c-0.282-2.707-0.106-5.461-0.378-8.169c-0.554-5.514-4.84-8.545-8.48-11.839
		c-4.061-3.675-8.5-6.93-12.722-10.432c-1.011-0.839-2.065-1.81-2.616-2.953c-0.348-0.723-0.099-2.14,0.442-2.749
		c0.389-0.439,2.015-0.435,2.554,0.013c6.251,5.208,12.682,10.249,18.486,15.927C277.386,282.626,280.354,288.248,280.384,295.62z"
		/>
	<path d="M224.409,279.219c-0.726,0.689-1.385,1.604-2.276,2.109c-4.198,2.381-6.768,6.278-9.531,9.996
		c-3.431,4.617-2.869,10.689,1.333,14.679c0.903,0.857,2.094,1.512,2.724,2.526c0.503,0.81,0.355,2.025,0.496,3.061
		c-1.038,0.114-2.31,0.671-3.076,0.268c-4.67-2.453-8.43-10.945-7.183-16.165c1.961-8.21,7.755-13.724,13.782-19.007
		C221.774,275.726,222.621,276.353,224.409,279.219z"/>
	<path d="M195.682,292.79c0.566-5.608,2.257-9.898,5.539-13.207c4.249-4.284,8.888-8.184,13.397-12.206
		c1.087-0.97,2.423-1.407,3.478-0.009c1.091,1.445,0.293,2.571-0.89,3.617c-4.094,3.622-8.302,7.137-12.156,11.002
		c-2.779,2.787-4.527,6.253-4.821,10.393c-0.066,0.927-1.521,1.756-2.336,2.63C197.012,294.126,196.131,293.241,195.682,292.79z"/>
</g>
</svg>
