<?xml version="1.0" encoding="iso-8859-1"?>
<!-- Generator: Adobe Illustrator 23.0.2, SVG Export Plug-In . SVG Version: 6.00 Build 0)  -->
<svg version="1.1" id="Layer_1_xA0_Image_1_" xmlns="http://www.w3.org/2000/svg" xmlns:xlink="http://www.w3.org/1999/xlink"
	 x="0px" y="0px" viewBox="0 0 66.72 43.2" style="enable-background:new 0 0 66.72 43.2;" xml:space="preserve">
<g>
	<path style="display:none;fill:#FFFFFF;" d="M71.375,45.771c-22.32,0-44.64,0-66.96,0c0-14.48,0-28.96,0-43.44
		c22.32,0,44.64,0,66.96,0C71.375,16.811,71.375,31.291,71.375,45.771z M31.667,18.083c-0.077,0.017-0.124,0.045-0.154,0.032
		c-0.404-0.172-0.801-0.359-1.208-0.523c-3.706-1.504-7.222-1.233-10.365,1.337c-0.962,0.786-1.484,2.26-2.525,2.758
		c-1.096,0.525-2.614,0.077-3.873,0.37c-5.915,1.376-7.801,7.387-3.79,11.946c0.603,0.686,1.246,1.408,2.019,1.857
		c1.421,0.826,2.258,1.936,2.421,3.568c0.088,0.879,0.534,1.061,1.407,0.907c12.8-2.251,25.611-2.258,38.412-0.015
		c1.064,0.186,1.494-0.068,1.601-1.094c0.144-1.38,0.742-2.406,2.036-3.125c0.884-0.491,1.635-1.288,2.318-2.061
		c3.94-4.458,2.313-10.182-3.385-11.88c-0.944-0.281-1.969-0.427-2.951-0.401c-0.967,0.025-1.545-0.218-2.15-1.035
		c-2.65-3.573-6.534-4.805-10.84-3.549c-0.866,0.253-1.697,0.628-2.545,0.947c-0.087-0.782-0.168-1.511-0.254-2.294
		c1.507,0.153,2.566-0.588,3.518-1.558c0.42-0.428,0.767-0.978,1.266-1.265c0.876-0.502,1.837-0.861,2.777-1.246
		c0.395-0.162,0.824-0.24,1.238-0.356c-0.277-0.375-0.473-0.899-0.844-1.101c-2.554-1.391-5.117-1.292-7.445,0.11
		c-0.853-2.239-1.657-4.434-2.54-6.598c-0.168-0.413-0.645-0.7-0.98-1.045c-0.297,0.34-0.711,0.632-0.872,1.027
		c-0.893,2.189-1.724,4.403-2.58,6.618c-0.093-0.05-0.3-0.163-0.509-0.273c-2.413-1.268-4.792-0.985-7.11,0.233
		c-0.308,0.162-0.442,0.652-0.657,0.99c0.252,0.153,0.526,0.464,0.754,0.433c1.737-0.237,2.872,0.739,3.939,1.865
		c1.142,1.205,2.287,2.39,4.128,2.166C31.834,16.612,31.753,17.318,31.667,18.083z"/>
	<path d="M31.667,18.083c0.087-0.765,0.167-1.471,0.256-2.256c-1.841,0.224-2.986-0.961-4.128-2.166
		c-1.067-1.126-2.202-2.102-3.939-1.865c-0.227,0.031-0.501-0.28-0.754-0.433c0.215-0.338,0.35-0.829,0.657-0.99
		c2.319-1.218,4.697-1.501,7.11-0.233c0.209,0.11,0.416,0.223,0.509,0.273c0.856-2.215,1.687-4.429,2.58-6.618
		c0.161-0.395,0.575-0.687,0.872-1.027c0.334,0.345,0.811,0.632,0.98,1.045c0.883,2.163,1.687,4.358,2.54,6.598
		c2.328-1.402,4.891-1.501,7.445-0.11c0.371,0.202,0.567,0.726,0.844,1.101c-0.414,0.116-0.843,0.194-1.238,0.356
		c-0.939,0.385-1.901,0.744-2.777,1.246c-0.5,0.287-0.847,0.837-1.266,1.265c-0.951,0.97-2.011,1.711-3.518,1.558
		c0.087,0.783,0.168,1.512,0.254,2.294c0.848-0.319,1.679-0.694,2.545-0.947c4.306-1.256,8.189-0.024,10.84,3.549
		c0.606,0.816,1.183,1.06,2.15,1.035c0.982-0.025,2.007,0.12,2.951,0.401c5.697,1.699,7.325,7.422,3.385,11.88
		c-0.683,0.773-1.434,1.57-2.318,2.061c-1.294,0.719-1.892,1.746-2.036,3.125c-0.107,1.026-0.537,1.28-1.601,1.094
		c-12.801-2.243-25.612-2.235-38.412,0.015c-0.873,0.154-1.319-0.029-1.407-0.907c-0.163-1.632-0.999-2.742-2.421-3.568
		c-0.773-0.449-1.416-1.172-2.019-1.857c-4.011-4.559-2.124-10.569,3.79-11.946c1.26-0.293,2.777,0.155,3.873-0.37
		c1.04-0.498,1.563-1.972,2.525-2.758c3.143-2.57,6.658-2.841,10.365-1.337c0.406,0.165,0.804,0.352,1.208,0.523
		C31.543,18.127,31.589,18.1,31.667,18.083z M32.777,34.242c-0.118-3.676-0.223-7.051-0.345-10.427
		c-0.008-0.212-0.094-0.474-0.237-0.62c-1.747-1.782-5.913-1.881-7.649-0.15c-3.332,3.321-2.959,7.393-0.015,10.772
		c0.186,0.213,0.531,0.404,0.804,0.407C27.869,34.254,30.403,34.242,32.777,34.242z M36.96,34.287c1.665,0,3.446-0.193,5.167,0.047
		c2.336,0.326,3.602-0.791,4.507-2.671c0.258-0.537,0.485-1.099,0.64-1.673c0.702-2.601-0.279-5.489-2.374-7.077
		c-1.934-1.467-4.462-1.503-6.846-0.042c-0.322,0.197-0.704,0.613-0.72,0.944C37.174,27.19,37.082,30.569,36.96,34.287z
		 M15.192,37.092c-0.033,1.309,0.155,1.918,1.481,1.693c11.042-1.874,22.12-1.907,33.216-0.516c1.451,0.182,2.897,0.412,4.402,0.629
		c0.133-0.609,0.239-1.097,0.382-1.749C41.424,34.894,28.334,34.839,15.192,37.092z M23.465,34.621
		c-3.018-4.707-3.384-8.436-0.877-11.284c0.962-1.092,2.312-2.015,3.668-2.549c2.203-0.868,4.378-0.151,6.551,0.894
		c-0.022-0.494-0.087-1.017-0.377-1.226c-0.837-0.603-1.718-1.192-2.666-1.585c-3.444-1.428-6.654-1.029-9.466,1.519
		c-2.417,2.19-2.955,5.018-2.487,8.088c0.332,2.176,1.672,3.818,3.062,5.451C21.622,34.81,22.368,34.983,23.465,34.621z
		 M36.815,21.816c4.877-1.885,7.551-1.731,9.73,0.761c3.456,3.953,2.806,8-0.36,12.244c0.928-0.155,1.688-0.05,2.063-0.381
		c2.818-2.489,4.965-6.696,3.161-11.111c-2.24-5.483-8.957-7.179-14.312-2.72C36.875,20.794,36.925,21.304,36.815,21.816z
		 M16.903,23.081c-2.848-0.435-6.139,1.142-7.349,3.444c-1.099,2.089-0.709,4.625,1.262,6.582c1.279,1.27,2.392,3.093,4.666,2.649
		c-1.109-1.333-2.33-2.47-3.143-3.848c-1.801-3.048-0.368-6.405,2.933-6.899C16.566,24.817,16.817,24.186,16.903,23.081z
		 M52.943,23.178c0.023,1.086,0.371,1.606,1.514,1.739c2.291,0.265,3.822,2.252,3.701,4.55c-0.093,1.773-0.992,3.177-2.162,4.424
		c-0.557,0.594-1.182,1.123-2.005,1.897c2.608,0.288,3.782-1.437,5.04-2.791c1.938-2.086,2.246-4.519,1.09-6.615
		C58.907,24.18,55.765,22.76,52.943,23.178z M16.266,26.268c-2.069-0.585-3.815,1.852-3.382,3.552
		c0.564,2.217,2.145,3.555,3.771,4.925c1.088,0.917,2.157,0.629,3.408,0.217C17.578,32.49,16.348,29.594,16.266,26.268z
		 M49.882,34.821c0.045,0.116,0.089,0.231,0.134,0.347c0.737,0,1.627,0.269,2.184-0.048c1.998-1.138,3.762-2.606,4.461-4.934
		c0.646-2.152-0.817-3.973-3.207-3.962C53.51,29.577,52.133,32.38,49.882,34.821z M34.756,33.708
		c1.708-2.984,1.662-11.454-0.131-13.286C33.123,25.01,33.683,29.362,34.756,33.708z M35.06,5.225c-0.101,0-0.203-0.001-0.304-0.001
		c-0.288,0.697-0.673,1.37-0.843,2.094c-0.323,1.377-0.72,2.784-0.721,4.178c-0.001,1.437,0.912,2.445,1.698,2.446
		c0.782,0,1.521-1.037,1.717-2.459C36.924,9.175,35.712,7.274,35.06,5.225z M36.679,17.458c0.058-0.944-0.789-1.862-1.754-1.9
		c-0.916-0.036-1.77,0.735-1.851,1.672c-0.086,0.986,0.684,1.874,1.681,1.94C35.752,19.234,36.616,18.466,36.679,17.458z
		 M43.044,10.782c-2.16-0.292-3.925,0.264-5.144,2.06c-0.218,0.322-0.115,0.861-0.16,1.3c0.475,0.043,0.987,0.216,1.413,0.093
		c0.425-0.123,0.789-0.517,1.137-0.838C41.19,12.568,42.066,11.714,43.044,10.782z M26.601,10.782
		c1.372,1.216,2.546,2.344,3.828,3.333c0.331,0.255,0.999,0.072,1.512,0.091c-0.055-0.508,0.067-1.146-0.194-1.502
		C30.525,11.037,28.792,10.528,26.601,10.782z"/>
	<path style="fill:#FFFFFF;" d="M32.777,34.242c-2.374,0-4.909,0.013-7.442-0.018c-0.273-0.003-0.618-0.194-0.804-0.407
		c-2.944-3.379-3.317-7.451,0.015-10.772c1.736-1.731,5.902-1.631,7.649,0.15c0.144,0.146,0.23,0.408,0.237,0.62
		C32.554,27.19,32.659,30.566,32.777,34.242z"/>
	<path style="fill:#FFFFFF;" d="M36.96,34.287c0.122-3.717,0.213-7.097,0.375-10.472c0.016-0.331,0.398-0.747,0.72-0.944
		c2.384-1.46,4.912-1.424,6.846,0.042c2.094,1.588,3.076,4.476,2.374,7.077c-0.155,0.574-0.382,1.136-0.64,1.673
		c-0.905,1.88-2.171,2.996-4.507,2.671C40.406,34.094,38.626,34.287,36.96,34.287z"/>
	<path style="fill:#FFFFFF;" d="M15.192,37.092c13.143-2.254,26.232-2.198,39.481,0.057c-0.142,0.652-0.249,1.14-0.382,1.749
		c-1.505-0.216-2.951-0.447-4.402-0.629c-11.096-1.392-22.175-1.359-33.216,0.516C15.346,39.011,15.158,38.401,15.192,37.092z"/>
	<path style="fill:#FFFFFF;" d="M23.465,34.621c-1.096,0.362-1.842,0.189-2.592-0.692c-1.39-1.633-2.73-3.275-3.062-5.451
		c-0.468-3.07,0.07-5.898,2.487-8.088c2.812-2.548,6.022-2.948,9.466-1.519c0.947,0.393,1.829,0.982,2.666,1.585
		c0.291,0.209,0.355,0.732,0.377,1.226c-2.172-1.045-4.347-1.761-6.551-0.894c-1.356,0.534-2.707,1.456-3.668,2.549
		C20.081,26.185,20.446,29.913,23.465,34.621z"/>
	<path style="fill:#FFFFFF;" d="M36.815,21.816c0.11-0.512,0.06-1.022,0.282-1.207c5.355-4.46,12.072-2.763,14.312,2.72
		c1.804,4.415-0.344,8.622-3.161,11.111c-0.375,0.331-1.135,0.226-2.063,0.381c3.166-4.244,3.816-8.291,0.36-12.244
		C44.366,20.085,41.692,19.931,36.815,21.816z"/>
	<path style="fill:#FFFFFF;" d="M16.903,23.081c-0.085,1.105-0.336,1.736-1.632,1.93c-3.301,0.494-4.733,3.85-2.933,6.899
		c0.814,1.377,2.034,2.514,3.143,3.848c-2.274,0.443-3.387-1.379-4.666-2.649c-1.971-1.957-2.36-4.493-1.262-6.582
		C10.764,24.223,14.055,22.646,16.903,23.081z"/>
	<path style="fill:#FFFFFF;" d="M52.943,23.178c2.821-0.419,5.964,1.001,7.178,3.204c1.156,2.096,0.847,4.529-1.09,6.615
		c-1.258,1.354-2.432,3.079-5.04,2.791c0.823-0.774,1.448-1.303,2.005-1.897c1.17-1.248,2.069-2.652,2.162-4.424
		c0.121-2.298-1.41-4.285-3.701-4.55C53.315,24.784,52.966,24.265,52.943,23.178z"/>
	<path style="fill:#FFFFFF;" d="M16.266,26.268c0.082,3.327,1.312,6.222,3.797,8.694c-1.252,0.412-2.32,0.7-3.408-0.217
		c-1.626-1.37-3.207-2.708-3.771-4.925C12.451,28.12,14.196,25.683,16.266,26.268z"/>
	<path style="fill:#FFFFFF;" d="M49.882,34.821c2.251-2.441,3.628-5.244,3.572-8.598c2.389-0.011,3.853,1.81,3.207,3.962
		c-0.699,2.329-2.463,3.796-4.461,4.934c-0.557,0.317-1.447,0.048-2.184,0.048C49.971,35.052,49.927,34.937,49.882,34.821z"/>
	<path style="fill:#FFFFFF;" d="M34.756,33.708c-1.072-4.346-1.633-8.698-0.131-13.286C36.418,22.254,36.464,30.723,34.756,33.708z"
		/>
	<path style="fill:#FFFFFF;" d="M35.06,5.225c0.653,2.049,1.865,3.95,1.547,6.258c-0.196,1.422-0.935,2.459-1.717,2.459
		c-0.786,0-1.699-1.009-1.698-2.446c0.001-1.394,0.397-2.801,0.721-4.178c0.17-0.724,0.555-1.398,0.843-2.094
		C34.857,5.224,34.958,5.224,35.06,5.225z"/>
	<path style="fill:#FFFFFF;" d="M36.679,17.458c-0.062,1.009-0.926,1.777-1.924,1.711c-0.997-0.066-1.767-0.953-1.681-1.94
		c0.081-0.937,0.935-1.708,1.851-1.672C35.889,15.595,36.737,16.514,36.679,17.458z"/>
	<path style="fill:#FFFFFF;" d="M43.044,10.782c-0.978,0.932-1.854,1.786-2.754,2.615c-0.348,0.321-0.712,0.715-1.137,0.838
		c-0.426,0.123-0.938-0.05-1.413-0.093c0.045-0.439-0.058-0.978,0.16-1.3C39.118,11.046,40.884,10.489,43.044,10.782z"/>
	<path style="fill:#FFFFFF;" d="M26.601,10.782c2.191-0.255,3.924,0.255,5.146,1.921c0.261,0.357,0.14,0.994,0.194,1.502
		c-0.513-0.018-1.182,0.164-1.512-0.091C29.147,13.126,27.973,11.998,26.601,10.782z"/>
</g>
</svg>
