<?xml version="1.0" encoding="UTF-8"?>
<svg width="56px" height="39px" viewBox="0 0 56 39" version="1.1" xmlns="http://www.w3.org/2000/svg" xmlns:xlink="http://www.w3.org/1999/xlink">
    <!-- Generator: Sketch 54.1 (76490) - https://sketchapp.com -->
    <title>Artboard</title>
    <desc>Created with Sketch.</desc>
    <g id="Artboard" stroke="none" stroke-width="1" fill="none" fill-rule="evenodd">
        <path d="M24.667,16.083 C24.754,15.318 24.834,14.612 24.923,13.827 C23.082,14.051 21.937,12.866 20.795,11.661 C19.728,10.535 18.593,9.559 16.856,9.796 C16.629,9.827 16.355,9.516 16.102,9.363 C16.317,9.025 16.452,8.534 16.759,8.373 C19.078,7.155 21.456,6.872 23.869,8.14 C24.078,8.25 24.285,8.363 24.378,8.413 C25.234,6.198 26.065,3.984 26.958,1.795 C27.119,1.4 27.533,1.108 27.83,0.768 C28.164,1.113 28.641,1.4 28.81,1.813 C29.693,3.976 30.497,6.171 31.35,8.411 C33.678,7.009 36.241,6.91 38.795,8.301 C39.166,8.503 39.362,9.027 39.639,9.402 C39.225,9.518 38.796,9.596 38.401,9.758 C37.462,10.143 36.5,10.502 35.624,11.004 C35.124,11.291 34.777,11.841 34.358,12.269 C33.407,13.239 32.347,13.98 30.84,13.827 C30.927,14.61 31.008,15.339 31.094,16.121 C31.942,15.802 32.773,15.427 33.639,15.174 C37.945,13.918 41.828,15.15 44.479,18.723 C45.085,19.539 45.662,19.783 46.629,19.758 C47.611,19.733 48.636,19.878 49.58,20.159 C55.277,21.858 56.905,27.581 52.965,32.039 C52.282,32.812 51.531,33.609 50.647,34.1 C49.353,34.819 48.755,35.846 48.611,37.225 C48.504,38.251 48.074,38.505 47.01,38.319 C34.209,36.076 21.398,36.084 8.598,38.334 C7.725,38.488 7.279,38.305 7.191,37.427 C7.028,35.795 6.192,34.685 4.77,33.859 C3.997,33.41 3.354,32.687 2.751,32.002 C-1.26,27.443 0.627,21.433 6.541,20.056 C7.801,19.763 9.318,20.211 10.414,19.686 C11.454,19.188 11.977,17.714 12.939,16.928 C16.082,14.358 19.597,14.087 23.304,15.591 C23.71,15.756 24.108,15.943 24.512,16.114 C24.543,16.127 24.589,16.1 24.667,16.083 Z M25.777,32.242 C25.659,28.566 25.554,25.191 25.432,21.815 C25.424,21.603 25.338,21.341 25.195,21.195 C23.448,19.413 19.282,19.314 17.546,21.045 C14.214,24.366 14.587,28.438 17.531,31.817 C17.717,32.03 18.062,32.221 18.335,32.224 C20.869,32.254 23.403,32.242 25.777,32.242 Z M29.96,32.287 C31.625,32.287 33.406,32.094 35.127,32.334 C37.463,32.66 38.729,31.543 39.634,29.663 C39.892,29.126 40.119,28.564 40.274,27.99 C40.976,25.389 39.995,22.501 37.9,20.913 C35.966,19.446 33.438,19.41 31.054,20.871 C30.732,21.068 30.35,21.484 30.334,21.815 C30.174,25.19 30.082,28.569 29.96,32.287 Z M8.192,35.092 C8.159,36.401 8.347,37.01 9.673,36.785 C20.715,34.911 31.793,34.878 42.889,36.269 C44.34,36.451 45.786,36.681 47.291,36.898 C47.424,36.289 47.53,35.801 47.673,35.149 C34.424,32.894 21.334,32.839 8.192,35.092 Z M16.465,32.621 C13.447,27.914 13.081,24.185 15.588,21.337 C16.55,20.245 17.9,19.322 19.256,18.788 C21.459,17.92 23.634,18.637 25.807,19.682 C25.785,19.188 25.72,18.665 25.43,18.456 C24.593,17.853 23.712,17.264 22.764,16.871 C19.32,15.443 16.11,15.842 13.298,18.39 C10.881,20.58 10.343,23.408 10.811,26.478 C11.143,28.654 12.483,30.296 13.873,31.929 C14.622,32.81 15.368,32.983 16.465,32.621 Z M29.815,19.816 C34.692,17.931 37.366,18.085 39.545,20.577 C43.001,24.53 42.351,28.577 39.185,32.821 C40.113,32.666 40.873,32.771 41.248,32.44 C44.066,29.951 46.213,25.744 44.409,21.329 C42.169,15.846 35.452,14.15 30.097,18.609 C29.875,18.794 29.925,19.304 29.815,19.816 Z M9.903,21.081 C7.055,20.646 3.764,22.223 2.554,24.525 C1.455,26.614 1.845,29.15 3.816,31.107 C5.095,32.377 6.208,34.2 8.482,33.756 C7.373,32.423 6.152,31.286 5.339,29.908 C3.538,26.86 4.971,23.503 8.272,23.009 C9.566,22.817 9.817,22.186 9.903,21.081 Z M45.943,21.178 C45.966,22.264 46.314,22.784 47.457,22.917 C49.748,23.182 51.279,25.169 51.158,27.467 C51.065,29.24 50.166,30.644 48.996,31.891 C48.439,32.485 47.814,33.014 46.991,33.788 C49.599,34.076 50.773,32.351 52.031,30.997 C53.969,28.911 54.277,26.478 53.121,24.382 C51.907,22.18 48.765,20.76 45.943,21.178 Z M9.266,24.268 C7.197,23.683 5.451,26.12 5.884,27.82 C6.448,30.037 8.029,31.375 9.655,32.745 C10.743,33.662 11.812,33.374 13.063,32.962 C10.578,30.49 9.348,27.594 9.266,24.268 Z M42.882,32.821 C42.927,32.937 42.971,33.052 43.016,33.168 C43.753,33.168 44.643,33.437 45.2,33.12 C47.198,31.982 48.962,30.514 49.661,28.186 C50.307,26.034 48.844,24.213 46.454,24.224 C46.51,27.577 45.133,30.38 42.882,32.821 Z M27.756,31.708 C29.464,28.724 29.418,20.254 27.625,18.422 C26.123,23.01 26.683,27.362 27.756,31.708 Z M28.06,3.225 C27.959,3.225 27.857,3.224 27.756,3.224 C27.468,3.921 27.083,4.594 26.913,5.318 C26.59,6.695 26.193,8.102 26.192,9.496 C26.191,10.933 27.104,11.941 27.89,11.942 C28.672,11.942 29.411,10.905 29.607,9.483 C29.924,7.175 28.712,5.274 28.06,3.225 Z M29.679,15.458 C29.737,14.514 28.89,13.596 27.925,13.558 C27.009,13.522 26.155,14.293 26.074,15.23 C25.988,16.216 26.758,17.104 27.755,17.17 C28.752,17.234 29.616,16.466 29.679,15.458 Z M36.044,8.782 C33.884,8.49 32.119,9.046 30.9,10.842 C30.682,11.164 30.785,11.703 30.74,12.142 C31.215,12.185 31.727,12.358 32.153,12.235 C32.578,12.112 32.942,11.718 33.29,11.397 C34.19,10.568 35.066,9.714 36.044,8.782 Z M19.601,8.782 C20.973,9.998 22.147,11.126 23.429,12.115 C23.76,12.37 24.428,12.187 24.941,12.206 C24.886,11.698 25.008,11.06 24.747,10.704 C23.525,9.037 21.792,8.528 19.601,8.782 Z" id="Shape" fill="#12290E" fill-rule="nonzero"></path>
    </g>
</svg>