<?xml version="1.0" encoding="UTF-8"?>
<svg width="56px" height="47px" viewBox="0 0 56 47" version="1.1" xmlns="http://www.w3.org/2000/svg" xmlns:xlink="http://www.w3.org/1999/xlink">
    <!-- Generator: Sketch 54.1 (76490) - https://sketchapp.com -->
    <title>dragon-alt</title>
    <desc>Created with Sketch.</desc>
    <g id="Page-1" stroke="none" stroke-width="1" fill="none" fill-rule="evenodd">
        <g id="dragon-alt" fill="#000000" fill-rule="nonzero">
            <path d="M29.036,34.5232696 C27.026087,32.1286609 26.3767304,29.2249391 26.0071304,25.8189217 C25.3755478,26.6043826 24.9606609,27.120313 24.4152696,27.7986435 C23.806087,26.6713391 23.3298435,25.7142261 22.7837217,24.7989913 C22.1618783,23.7569043 21.5358957,22.707513 20.804,21.7433391 C20.0489739,20.748487 19.3518957,20.7562783 18.4946087,21.6758957 C18.0074087,22.1984 17.5993391,22.7946783 17.0607652,23.4778783 C16.5806261,22.0384348 16.1430957,20.7134261 15.6943652,19.3920696 C15.6035478,19.1242435 15.4766957,18.8678609 15.3561739,18.6109913 C14.3571826,16.4825043 13.4141913,16.3522435 11.9021913,18.1308522 C11.7480696,18.3122435 11.5864,18.4868174 11.3273391,18.7777739 C11.1707826,18.3032348 11.0373565,17.9453217 10.9343652,17.5791304 C10.472,15.9356522 10.0142609,15.630087 8.39683478,16.2709217 C6.97248696,16.8350609 5.61290435,17.5728 4.25551304,18.2917913 C2.90128696,19.0090783 1.58504348,19.7984348 0.252243478,20.5561391 C0.168243478,20.4860174 0.084,20.4161391 0,20.3462609 C0.2352,19.9335652 0.410747826,19.4694957 0.715095652,19.1159652 C4.11721739,15.1635826 7.93106087,11.6633391 12.2213913,8.68633043 C14.0713391,7.40271304 15.9200696,7.41074783 17.7807304,8.60354783 C19.4186087,9.65342609 21.0024348,10.7914435 22.6695304,11.7911652 C23.5850087,12.3402087 24.6232,12.684 25.977913,13.2853913 C26.3789217,10.5616 26.7309913,8.17088696 27.0830609,5.78017391 C26.9472,5.74657391 26.8113391,5.71321739 26.6754783,5.67961739 C26.5386435,5.83227826 26.4018087,5.98493913 26.2316174,6.17436522 C26.1834087,6.05067826 26.0942957,5.94038261 26.1147478,5.85662609 C26.5354783,4.12573913 26.9574261,2.39485217 27.4151652,0.673704348 C27.4641043,0.489391304 27.7570087,0.221565217 27.8982261,0.243234783 C28.1402435,0.280486957 28.4954783,0.474295652 28.5536696,0.674678261 C29.0657043,2.4416 29.522713,4.22434783 29.7362435,6.10034783 C29.6013565,5.89753043 29.4664696,5.69471304 29.214713,5.31610435 C28.8609391,8.08274783 29.3634783,10.5272696 30.2414609,13.1989565 C31.3142261,12.7334261 32.3526609,12.4054609 33.2618087,11.8617739 C34.8953043,10.8846957 36.4465043,9.77053913 38.0410435,8.72772174 C39.977913,7.46090435 41.8843478,7.45822609 43.8100174,8.80977391 C48.0830609,11.8086957 51.9061565,15.2965217 55.2926957,19.2642435 C55.5690435,19.5880696 55.7594435,19.9854261 55.9897739,20.3484522 C55.9264696,20.4324522 55.8629217,20.5162087 55.7993739,20.6002087 C55.0721043,20.2284174 54.3377739,19.8700174 53.6190261,19.4821565 C51.7651826,18.4814609 49.9765913,17.3349217 48.053113,16.4954087 C45.9448348,15.5753043 45.5029217,15.893287 44.8759652,18.0675478 C44.8104696,18.2944696 44.7337739,18.5179826 44.6341913,18.8308522 C44.1579478,18.3239304 43.7881043,17.8384348 43.3291478,17.461287 C42.3851826,16.6855652 41.5517565,16.7676174 41.0443478,17.8722783 C40.2876174,19.5203826 39.7400348,21.2646609 39.1035826,22.9680348 C39.0509913,23.1085217 39.0003478,23.2499826 38.898087,23.5297391 C38.3780174,22.8859826 37.9636174,22.3091826 37.4837217,21.7927652 C36.5575304,20.7957217 35.8906435,20.7613913 35.1253913,21.8589913 C34.1096,23.3162087 33.2447652,24.8793391 32.3266087,26.404 C32.0845913,26.8059826 31.8849391,27.2337739 31.6107826,27.7545739 C31.0938783,27.2079652 30.6926261,26.7835826 30.2575304,26.3234087 C29.2626783,29.6033043 30.9438957,33.5849043 33.8885217,35.0740174 C34.1037565,35.1828522 34.3353043,35.273913 34.5697739,35.3286957 C35.6410783,35.5782609 36.7143304,35.1017739 36.8886609,34.3141217 C37.0890435,33.4093565 36.3926957,32.4602783 35.2400696,32.2998261 C34.5432348,32.2029217 33.7032348,32.1654261 33.1142609,32.4663652 C31.9806261,33.0456 31.4946435,32.6151304 31.1104348,31.5606261 C32.6915826,30.5039304 34.4575304,30.1345739 36.3086957,30.4226087 C38.2816,30.7296348 39.3585043,32.3185739 39.2740174,34.5218087 C39.2097391,36.1964522 38.0054957,37.3247304 35.9218087,37.5842783 C33.7020174,37.8606261 31.9080696,36.8553043 30.2278261,35.5768 C29.8100174,35.2588174 29.4360348,34.882887 29.0423304,34.5337391 C29.0428174,34.5342261 29.036,34.5232696 29.036,34.5232696 Z" id="Path"></path>
            <path d="M29.036,34.5232696 C29.036,34.5232696 29.0428174,34.5342261 29.0425739,34.5339826 C29.0347826,35.0114435 28.9729391,35.4959652 29.0296696,35.9658783 C29.1721043,37.1445565 29.141913,38.4125913 29.5896696,39.4722087 C30.5609043,41.7716174 30.150887,43.2254261 28.3452522,44.9699478 C27.1653565,46.1096696 26.0482783,46.5267478 24.2304696,46.1941565 C25.5452522,45.6258783 26.5980522,45.1545043 27.6642435,44.715513 C28.4521391,44.3912 29.2281043,42.8370783 28.9544348,41.7857391 C28.7323826,40.9330783 28.3340522,40.1225391 27.9756522,39.3098087 C27.1680348,37.4778783 27.0263304,35.6564174 27.9289043,33.7609391 C28.3423304,34.0455652 28.6890435,34.2844174 29.036,34.5232696 Z" id="Path"></path>
        </g>
    </g>
</svg>