<?xml version="1.0" encoding="UTF-8"?>
<svg width="113px" height="41px" viewBox="0 0 113 41" version="1.1" xmlns="http://www.w3.org/2000/svg" xmlns:xlink="http://www.w3.org/1999/xlink">
    <!-- Generator: Sketch 54.1 (76490) - https://sketchapp.com -->
    <title>dragon-logo-template-vector-illustration-260nw-1179697711</title>
    <desc>Created with Sketch.</desc>
    <g id="Page-1" stroke="none" stroke-width="1" fill="none" fill-rule="evenodd">
        <g id="dragon-logo-template-vector-illustration-260nw-1179697711" transform="translate(1.000000, 1.000000)" fill-rule="nonzero">
            <path d="M6.34458369,37.9309125 C6.08164807,34.7904375 5.81919313,31.65045 5.54472103,28.3690875 C4.33483262,29.6463375 4.05651502,31.286775 3.69407725,32.8423875 C3.33260086,34.3936125 3.17157082,35.9931 2.76106438,37.5526125 C0.6792103,31.6392375 0.812841202,25.9286625 4.35694421,20.462325 C2.56734764,21.15945 1.60933906,22.6848375 0.334077253,24.3793875 C-0.268703863,21.09315 0.243227468,18.3178125 1.65981116,15.6624 C3.11388841,12.9367875 5.51155365,11.3407125 8.2663691,10.1629125 C8.25387124,10.0361625 8.2408927,9.9094125 8.22839485,9.7826625 C7.32662661,9.544275 6.42485837,9.306375 5.23852361,8.9929125 C8.20195708,6.6655875 11.3562232,6.5856375 14.6292189,6.981975 C14.2557253,5.6613375 13.4683605,5.0349 10.6005837,3.7649625 C14.5465408,2.606175 18.1223691,3.0385875 21.6885837,4.2544125 C21.7645322,4.1598375 21.84,4.064775 21.9159485,3.9702 C21.4386266,2.7724125 20.960824,1.574625 20.4027468,0.1740375 C21.9255622,0.42705 22.8696309,1.3128375 23.7266953,2.2956375 C24.5592446,3.249675 25.3264206,4.2627 26.3565322,5.53995 C26.5252532,4.5942 26.6319657,3.99555 26.7973219,3.0678375 C27.2717597,4.238325 27.6346781,5.1328875 27.9975966,6.02745 C28.1254592,5.9977125 28.2533219,5.9684625 28.3807039,5.938725 C28.4758798,5.2040625 28.5715365,4.4689125 28.6667124,3.73425 C28.7412189,3.7162125 28.816206,3.6976875 28.8907124,3.67965 C29.0392446,4.1715375 29.1103863,4.7058375 29.3488069,5.148 C31.3465408,8.853975 33.4783863,12.4707375 36.6504378,15.304575 C37.1080515,15.7135875 38.1295107,15.9237 38.1626781,16.2927375 C38.3049614,17.892225 38.2189185,19.5190125 38.1194163,21.1297125 C38.0920172,21.569925 37.728618,21.9886875 37.4281888,22.603425 C36.8840515,22.1208 36.4846009,21.579675 35.9539227,21.3481125 C35.4198798,21.1146 34.7550901,21.1887 34.055691,21.1189875 C34.4676395,20.0757375 33.6269185,20.3243625 33.0640343,19.9977375 C31.8152103,19.2733125 30.7634678,18.200325 29.6290472,17.2726125 C29.3959142,17.082 29.1531674,16.9040625 28.9147468,16.7197875 C28.8426438,16.786575 28.7705408,16.85385 28.6984378,16.9206375 C29.8381459,18.4084875 30.9773734,19.896825 32.1170815,21.384675 C32.0834335,21.515325 32.0497854,21.645975 32.0161373,21.776625 C30.4202575,21.495825 29.2526695,22.0935 28.527794,23.363925 C27.6635193,21.495825 26.9573906,19.658925 25.9945751,17.97315 C24.9226438,16.0967625 22.671588,16.1045625 20.8017167,15.2139 C21.5554335,14.4977625 22.1812876,13.9030125 22.8076223,13.3082625 C22.7576309,13.19955 22.7081202,13.0908375 22.6581288,12.9816375 C22.3745236,12.9816375 22.0452532,12.884625 21.8140429,12.99675 C19.4346438,14.1506625 17.0422661,15.257775 15.5454077,17.6787 C14.4441545,19.4595375 14.3624378,21.201375 15.4319657,22.940775 C18.5905579,28.0761 23.9583863,30.8514375 30.0732017,29.683875 C34.8988155,28.7625 39.2624893,26.678925 43.4612876,24.23265 C48.864206,21.0848625 54.1656996,17.75865 59.5508326,14.579175 C65.1844807,11.252475 70.9214764,8.132475 77.2501974,6.328725 C83.8529099,4.4464875 90.351794,4.3421625 96.6584034,7.49775 C97.1006352,7.719075 97.5241202,7.978425 97.8456996,8.4786 C96.559382,8.1666 95.2773906,7.8346125 93.9862661,7.545525 C89.4985751,6.5403 85.1594163,7.27545 80.8995708,8.7618375 C73.8853906,11.2090875 67.9493906,15.55515 62.0090644,19.881225 C55.5544034,24.5817 49.3391245,29.631225 42.3230215,33.5014875 C36.8778026,36.504975 31.1888755,38.6377875 24.8986094,38.5929375 C20.8406524,38.564175 16.9783348,37.5545625 13.3352103,35.7552 C10.896206,34.5505875 9.91416309,34.6714875 8.03323605,36.6341625 C7.60302146,37.08315 7.18674678,37.5453 6.76374249,38.0016 C6.62386266,37.9777125 6.48398283,37.9543125 6.34458369,37.9309125 Z" id="Path" stroke="#12290E" fill-opacity="0" fill="#000000"></path>
            <path d="M107.633442,14.0166 C107.149871,13.6621875 106.672069,13.299 106.181768,12.954825 C105.593888,12.5424 104.90891,12.2289375 104.428223,11.716575 C104.025408,11.2870875 103.637974,10.62165 103.663931,10.0815 C103.680275,9.749025 104.486386,9.456525 105.208378,8.959275 C103.809579,8.4547125 102.461734,7.9681875 101.05909,7.4621625 C103.788429,5.73495 108.783725,7.816575 109.478318,10.973625 C108.539056,10.8678375 107.62479,10.764975 106.528824,10.6416375 C106.705236,11.0560125 106.72927,11.2344375 106.797047,11.25345 C108.769305,11.810175 109.6057,13.3531125 110.181082,15.162225 C110.59303,16.4584875 111.079485,17.7298875 111.627948,19.282575 C110.739639,18.629325 110.009957,18.0604125 109.248069,17.5397625 C108.265545,16.868475 107.297923,16.1538 106.247142,15.6121875 C105.365562,15.1578375 104.391691,15.2816625 103.728343,16.0967625 C103.076052,16.8987 103.447622,17.6904 104.01291,18.4065375 C104.078283,18.4894125 104.067708,18.633225 104.128275,18.9174375 C102.501631,19.128525 101.028326,18.9145125 99.8232446,17.7786375 C97.7327382,15.8081625 97.5495966,13.237575 97.8658884,10.464675 C98.9719485,11.78775 100.078009,13.110825 101.397974,14.6898375 C101.397974,14.062425 101.397974,13.818675 101.397974,13.426725 C103.357253,14.9667375 105.479004,14.007825 107.464721,14.3846625 C107.521923,14.2627875 107.577682,14.13945 107.633442,14.0166 Z" id="Path" fill="#12290E"></path>
            <path d="M29.983794,9.5082 C30.9153648,10.4095875 31.8474163,11.310975 33.0250987,12.4502625 C31.5243948,12.4722 30.6053219,11.8896375 29.9059227,11.05455 C29.6131845,10.704525 29.7021116,10.025925 29.6175107,9.4965 C29.7396052,9.5004 29.8616996,9.5043 29.983794,9.5082 Z" id="Path" fill="#12290E"></path>
        </g>
    </g>
</svg>