<?xml version="1.0" encoding="UTF-8"?>
<svg width="29px" height="47px" viewBox="0 0 29 47" version="1.1" xmlns="http://www.w3.org/2000/svg" xmlns:xlink="http://www.w3.org/1999/xlink">
    <!-- Generator: Sketch 54.1 (76490) - https://sketchapp.com -->
    <title>Onion_icon_Vegetables_logo__Thin_line_art_design_-_Stock_Illustration__35274014__-_PIXTA</title>
    <desc>Created with Sketch.</desc>
    <g id="Page-1" stroke="none" stroke-width="1" fill="none" fill-rule="evenodd">
        <g id="Onion_icon_Vegetables_logo__Thin_line_art_design_-_Stock_Illustration__35274014__-_PIXTA" transform="translate(18.042553, 23.000000) rotate(20.000000) translate(-18.042553, -23.000000) translate(4.000000, -1.000000)" fill-rule="nonzero">
            <path d="M12.2594043,8.52638298 C12.5742128,6.79557447 12.8257021,5.25012766 13.1440851,3.71846809 C13.3639149,2.66119149 13.6511489,1.61540426 13.968,0.582638298 C14.0384681,0.353361702 14.3928511,0.0245106383 14.5580426,0.0551489362 C14.7982979,0.0998297872 15.1003404,0.393702128 15.1777021,0.642893617 C15.9898723,3.26578723 16.548,5.94306383 16.7800851,8.68340426 C16.7941277,8.84782979 16.8308936,9.01021277 16.8898723,9.3773617 C17.0714043,9.09880851 17.1786383,8.97625532 17.2394043,8.83353191 C17.5299574,8.15131915 17.7694468,7.44357447 18.1097872,6.78791489 C18.2394894,6.53821277 18.5808511,6.26502128 18.8422979,6.24765957 C19.2788936,6.21855319 19.2998298,6.65131915 19.3309787,6.99880851 C19.6238298,10.2541277 19.5048511,13.4989787 19.068,16.7338723 C18.9117447,17.8909787 18.7128511,19.0424681 18.5377021,20.1972766 C18.4810213,20.5718298 18.3842553,20.9374468 18.8489362,21.1886809 C18.9837447,21.2614468 19.0417021,21.6097021 19.0189787,21.8193191 C18.8430638,23.4467234 19.578383,24.6589787 20.7612766,25.6491064 C22.0963404,26.7666383 23.4684255,27.8397447 24.8098723,28.9493617 C25.1685957,29.2460426 25.4864681,29.5953191 25.8040851,29.9382128 C28.8109787,33.1843404 28.7977021,37.4346383 26.0180426,40.7371915 C24.1473191,42.96 21.7164255,44.2802553 18.9617872,45.0579574 C18.2892766,45.2479149 17.6011915,45.3990638 16.9105532,45.5022128 C16.3988936,45.5785532 16.3868936,45.8205957 16.5411064,46.2045957 C16.6279149,46.4205957 16.7716596,46.6478298 16.7581277,46.8615319 C16.7410213,47.1344681 16.668766,47.5271489 16.482383,47.6394894 C16.1269787,47.8539574 15.852,47.5845957 15.7102979,47.2248511 C15.5119149,46.7208511 15.317617,46.2153191 15.1215319,45.7105532 C15.0569362,45.7074894 14.9925957,45.7044255 14.928,45.7013617 C14.8605957,45.8645106 14.7497872,46.0238298 14.7344681,46.1918298 C14.7015319,46.5505532 14.783234,46.9317447 14.6913191,47.2692766 C14.6292766,47.4970213 14.3509787,47.6655319 14.1694468,47.8608511 C13.9876596,47.6650213 13.7144681,47.4965106 13.6462979,47.2669787 C13.5531064,46.9531915 13.6322553,46.5919149 13.6057021,46.2533617 C13.5914043,46.068766 13.5117447,45.8895319 13.4617021,45.7077447 C13.3909787,45.6998298 13.32,45.6921702 13.2492766,45.6842553 C13.0485957,46.1782979 12.8361702,46.6677447 12.6510638,47.1674043 C12.5172766,47.5289362 12.3076596,47.784766 11.9009362,47.6772766 C11.472766,47.5641702 11.4653617,47.2355745 11.5603404,46.8594894 C11.8904681,45.5504681 11.8731064,45.6028085 10.4864681,45.3181277 C7.26153191,44.6558298 4.42314894,43.2554043 2.28051064,40.6810213 C0.682212766,38.760766 -0.0375319149,36.5532766 0.345957447,34.0414468 C0.575489362,32.537617 1.27838298,31.2331915 2.33668085,30.2009362 C3.71565957,28.8556596 5.21744681,27.6344681 6.69370213,26.3920851 C7.7052766,25.5408511 8.79114894,24.7524255 9.16187234,23.4 C9.2987234,22.9003404 9.23131915,22.3478298 9.324,21.8315745 C9.3732766,21.5563404 9.57702128,21.3114894 9.68859574,21.0436596 C9.76697872,20.8557447 9.87829787,20.6425532 9.85353191,20.4566809 C9.54740426,18.1427234 9.1332766,15.8397447 8.91957447,13.5181277 C8.67906383,10.9049362 8.93948936,8.29276596 9.36229787,5.70612766 C9.40825532,5.4252766 9.70774468,5.18604255 9.88978723,4.92740426 C10.1451064,5.11148936 10.4897872,5.24195745 10.6391489,5.48987234 C11.087234,6.23310638 11.4584681,7.02255319 11.8613617,7.79285106 C11.9670638,7.99404255 12.077617,8.19165957 12.2594043,8.52638298 Z M10.4448511,23.7497872 C10.3245957,23.856766 10.2331915,23.8991489 10.2074043,23.9665532 C9.56093617,25.6700426 8.14212766,26.6540426 6.79838298,27.738383 C5.49625532,28.7890213 4.19131915,29.8682553 3.0653617,31.097617 C1.06697872,33.2793191 0.827234043,35.8138723 2.16791489,38.4196596 C3.79148936,41.5751489 6.63242553,43.1514894 9.92144681,44.028 C12.2497021,44.6484255 14.6139574,44.7347234 17.0017021,44.3262128 C19.7438298,43.8569362 22.2250213,42.8486809 24.2839149,40.9391489 C26.3374468,39.0344681 27.2594043,36.6862979 26.8930213,33.8874894 C26.8368511,33.4590638 26.6545532,33.018383 26.4273191,32.646383 C25.1617021,30.5754894 23.3254468,29.0652766 21.4125957,27.6354894 C20.2353191,26.7554043 19.0682553,25.8602553 18.378383,24.5098723 C18.192,24.1450213 18.0556596,23.754383 17.855234,23.2774468 C17.4132766,23.8189787 17.0458723,24.2813617 16.6654468,24.7325106 C16.1565957,25.3358298 15.8195745,25.3100426 15.3878298,24.6403404 C15.0365106,24.0954894 14.6933617,23.5455319 14.2858723,22.9018723 C14.1224681,23.1901277 14.0080851,23.3614468 13.9238298,23.5462979 C13.6069787,24.2412766 13.3276596,24.9551489 12.9760851,25.6314894 C12.8346383,25.9036596 12.5410213,26.2805106 12.3196596,26.2784681 C12.077617,26.2761702 11.7868085,25.926383 11.6098723,25.6651915 C11.1982979,25.0575319 10.8426383,24.4123404 10.4448511,23.7497872 Z M12.2874894,24.3602553 C12.4325106,24.053617 12.5522553,23.8077447 12.665617,23.5588085 C13.0090213,22.8061277 13.2311489,21.959234 13.7274894,21.3273191 C14.1605106,20.7758298 14.1972766,20.2728511 14.1150638,19.6835745 C13.6501277,16.3514043 12.8839149,13.0965957 11.573617,9.98655319 C11.2281702,9.16646809 10.8441702,8.36246809 10.4356596,7.45812766 C9.32731915,9.85225532 10.764766,22.7788085 12.2874894,24.3602553 Z M14.6948936,3.03217021 C14.5756596,3.03191489 14.4564255,3.03165957 14.3371915,3.03140426 C14.0218723,5.25038298 13.6907234,7.46731915 13.3986383,9.68961702 C13.2763404,10.6194894 13.3100426,11.5427234 13.6636596,12.4470638 C13.9171915,13.0958298 14.0688511,13.7849362 14.2557447,14.4589787 C14.430383,15.0891064 14.5917447,15.7228085 14.7589787,16.355234 C15.0482553,15.7465532 15.1945532,15.1514043 15.3817021,14.5692766 C15.8295319,13.1757447 16.0046809,11.7707234 15.7805106,10.3064681 C15.6071489,9.17412766 15.5844255,8.01880851 15.4146383,6.88595745 C15.2208511,5.59404255 14.9384681,4.31591489 14.6948936,3.03217021 Z M18.2093617,9.72255319 C18.1044255,9.83285106 18.0474894,9.86680851 18.0293617,9.91531915 C16.6978723,13.4864681 15.8203404,17.1707234 15.2172766,20.9308085 C15.0500426,21.9732766 15.432,22.7239149 16.2035745,23.5971064 C16.4938723,23.0731915 16.8005106,22.6544681 16.9657021,22.1859574 C17.1469787,21.671234 17.1937021,21.1097872 17.3068085,20.5705532 C18.0199149,17.1674043 18.3546383,13.728 18.2913191,10.2510638 C18.2885106,10.0986383 18.2453617,9.9467234 18.2093617,9.72255319 Z" id="Shape" fill="#12290E"></path>
            <path d="M12.2874894,24.3602553 C10.764766,22.7788085 9.32731915,9.85225532 10.4356596,7.45812766 C10.8439149,8.36246809 11.2279149,9.16646809 11.573617,9.98655319 C12.8839149,13.0965957 13.6501277,16.3516596 14.1150638,19.6835745 C14.1972766,20.2728511 14.160766,20.7758298 13.7274894,21.3273191 C13.2311489,21.959234 13.0090213,22.8061277 12.665617,23.5588085 C12.5522553,23.8077447 12.4325106,24.053617 12.2874894,24.3602553 Z" id="Path" fill="#FFFFFF"></path>
            <path d="M14.6948936,3.03217021 C14.9387234,4.31617021 15.2211064,5.59404255 15.4146383,6.88570213 C15.5844255,8.01880851 15.6074043,9.17387234 15.7805106,10.3062128 C16.0046809,11.7704681 15.8295319,13.1757447 15.3817021,14.5690213 C15.1945532,15.1511489 15.0482553,15.7462979 14.7589787,16.3549787 C14.5917447,15.7228085 14.430383,15.0888511 14.2557447,14.4587234 C14.0688511,13.7846809 13.9174468,13.0955745 13.6636596,12.4468085 C13.3100426,11.5422128 13.2765957,10.6189787 13.3986383,9.6893617 C13.6907234,7.46731915 14.0218723,5.25038298 14.3371915,3.03114894 C14.4561702,3.03165957 14.5754043,3.03191489 14.6948936,3.03217021 Z" id="Path" fill="#FFFFFF"></path>
            <path d="M18.2093617,9.72255319 C18.2453617,9.94697872 18.2885106,10.0986383 18.2913191,10.2510638 C18.3548936,13.728 18.0199149,17.1674043 17.3068085,20.5705532 C17.1937021,21.1100426 17.1469787,21.6714894 16.9657021,22.1859574 C16.8005106,22.6544681 16.4941277,23.0731915 16.2035745,23.5971064 C15.4322553,22.7239149 15.0502979,21.9732766 15.2172766,20.9308085 C15.8200851,17.1707234 16.6978723,13.4864681 18.0293617,9.91531915 C18.0474894,9.86680851 18.1046809,9.83285106 18.2093617,9.72255319 Z" id="Path" fill="#FFFFFF"></path>
            <path d="M24.864,35.9029787 C24.8264681,36.0962553 24.822383,36.4815319 24.6668936,36.7904681 C24.5645106,36.9939574 24.2448511,37.1908085 24.0211915,37.1920851 C23.885617,37.1928511 23.651234,36.8254468 23.6285106,36.6061277 C23.5565106,35.9149787 23.6014468,35.2118298 23.532,34.5204255 C23.3905532,33.1125957 22.2962553,32.3387234 21.3668936,31.4977021 C20.3300426,30.5594043 19.1966809,29.7283404 18.1187234,28.8342128 C17.8605957,28.62 17.5914894,28.3720851 17.4508085,28.0802553 C17.3619574,27.8956596 17.4255319,27.5338723 17.5636596,27.378383 C17.6629787,27.2662979 18.0781277,27.2673191 18.2157447,27.3817021 C19.8117447,28.7114043 21.4537021,29.9984681 22.9355745,31.4481702 C24.0985532,32.5853617 24.8563404,34.020766 24.864,35.9029787 Z" id="Path" fill="#12290E"></path>
            <path d="M10.5725106,31.7154894 C10.3871489,31.8914043 10.2188936,32.1250213 9.99140426,32.2539574 C8.91957447,32.8618723 8.26340426,33.8568511 7.55795745,34.8061277 C6.68195745,35.9849362 6.82544681,37.535234 7.89829787,38.5539574 C8.12885106,38.772766 8.43293617,38.94 8.59378723,39.1988936 C8.72221277,39.4057021 8.68442553,39.7159149 8.72042553,39.9804255 C8.45540426,40.0095319 8.1306383,40.1517447 7.93506383,40.0488511 C6.7427234,39.4225532 5.7827234,37.254383 6.10110638,35.921617 C6.60178723,33.8254468 8.08110638,32.417617 9.61991489,31.068766 C9.89974468,30.8236596 10.116,30.9837447 10.5725106,31.7154894 Z" id="Path" fill="#12290E"></path>
            <path d="M3.23795745,35.1804255 C3.38246809,33.7485957 3.81421277,32.6532766 4.65217021,31.8084255 C5.73702128,30.7146383 6.92144681,29.7188936 8.07268085,28.692 C8.35021277,28.4443404 8.69131915,28.332766 8.96068085,28.6897021 C9.23923404,29.0586383 9.03548936,29.3461277 8.73344681,29.6131915 C7.68817021,30.5379574 6.61378723,31.4354043 5.62978723,32.4222128 C4.92025532,33.1337872 4.47395745,34.0187234 4.39889362,35.0757447 C4.38204255,35.3124255 4.01055319,35.5240851 3.80246809,35.747234 C3.57753191,35.5215319 3.35259574,35.2955745 3.23795745,35.1804255 Z" id="Path" fill="#12290E"></path>
        </g>
    </g>
</svg>